<?xml version="1.0" encoding="UTF-8" ?>
<svg version="1.1" width="256" height="256" xmlns="http://www.w3.org/2000/svg" shape-rendering="crispEdges">
<rect x="176" y="16" width="48" height="8" fill="#171111" />
<rect x="8" y="24" width="176" height="8" fill="#171111" />
<rect x="184" y="24" width="8" height="32" fill="#EBEDE9" />
<rect x="192" y="24" width="16" height="8" fill="#171111" />
<rect x="208" y="24" width="8" height="8" fill="#EBEDE9" />
<rect x="216" y="24" width="32" height="8" fill="#171111" />
<rect x="0" y="32" width="16" height="8" fill="#171111" />
<rect x="16" y="32" width="16" height="8" fill="#EBEDE9" />
<rect x="32" y="32" width="8" height="32" fill="#171111" />
<rect x="40" y="32" width="24" height="8" fill="#EBEDE9" />
<rect x="64" y="32" width="16" height="16" fill="#171111" />
<rect x="80" y="32" width="16" height="8" fill="#EBEDE9" />
<rect x="96" y="32" width="8" height="32" fill="#171111" />
<rect x="104" y="32" width="16" height="16" fill="#EBEDE9" />
<rect x="120" y="32" width="8" height="8" fill="#171111" />
<rect x="128" y="32" width="8" height="16" fill="#EBEDE9" />
<rect x="136" y="32" width="16" height="8" fill="#171111" />
<rect x="152" y="32" width="16" height="8" fill="#EBEDE9" />
<rect x="168" y="32" width="8" height="16" fill="#171111" />
<rect x="176" y="32" width="8" height="8" fill="#EBEDE9" />
<rect x="192" y="32" width="8" height="8" fill="#EBEDE9" />
<rect x="200" y="32" width="32" height="8" fill="#171111" />
<rect x="232" y="32" width="16" height="8" fill="#EBEDE9" />
<rect x="248" y="32" width="8" height="24" fill="#171111" />
<rect x="0" y="40" width="8" height="16" fill="#171111" />
<rect x="8" y="40" width="8" height="8" fill="#EBEDE9" />
<rect x="16" y="40" width="16" height="8" fill="#171111" />
<rect x="40" y="40" width="8" height="16" fill="#EBEDE9" />
<rect x="48" y="40" width="8" height="8" fill="#171111" />
<rect x="56" y="40" width="8" height="16" fill="#EBEDE9" />
<rect x="80" y="40" width="8" height="16" fill="#EBEDE9" />
<rect x="88" y="40" width="8" height="24" fill="#171111" />
<rect x="120" y="40" width="8" height="16" fill="#EBEDE9" />
<rect x="136" y="40" width="8" height="16" fill="#EBEDE9" />
<rect x="144" y="40" width="8" height="24" fill="#171111" />
<rect x="152" y="40" width="8" height="16" fill="#EBEDE9" />
<rect x="160" y="40" width="8" height="8" fill="#171111" />
<rect x="176" y="40" width="8" height="24" fill="#171111" />
<rect x="192" y="40" width="16" height="8" fill="#171111" />
<rect x="208" y="40" width="8" height="16" fill="#EBEDE9" />
<rect x="216" y="40" width="8" height="24" fill="#171111" />
<rect x="224" y="40" width="8" height="8" fill="#EBEDE9" />
<rect x="232" y="40" width="16" height="8" fill="#171111" />
<rect x="8" y="48" width="8" height="16" fill="#171111" />
<rect x="16" y="48" width="16" height="8" fill="#EBEDE9" />
<rect x="48" y="48" width="8" height="8" fill="#EBEDE9" />
<rect x="64" y="48" width="8" height="16" fill="#171111" />
<rect x="72" y="48" width="8" height="8" fill="#EBEDE9" />
<rect x="104" y="48" width="8" height="8" fill="#EBEDE9" />
<rect x="112" y="48" width="8" height="16" fill="#171111" />
<rect x="128" y="48" width="8" height="16" fill="#171111" />
<rect x="160" y="48" width="16" height="8" fill="#EBEDE9" />
<rect x="192" y="48" width="8" height="8" fill="#EBEDE9" />
<rect x="200" y="48" width="8" height="16" fill="#171111" />
<rect x="224" y="48" width="8" height="16" fill="#171111" />
<rect x="232" y="48" width="16" height="8" fill="#EBEDE9" />
<rect x="16" y="56" width="16" height="8" fill="#171111" />
<rect x="40" y="56" width="24" height="8" fill="#171111" />
<rect x="72" y="56" width="16" height="8" fill="#171111" />
<rect x="104" y="56" width="8" height="8" fill="#171111" />
<rect x="120" y="56" width="8" height="8" fill="#171111" />
<rect x="136" y="56" width="8" height="8" fill="#171111" />
<rect x="152" y="56" width="24" height="8" fill="#171111" />
<rect x="184" y="56" width="16" height="8" fill="#171111" />
<rect x="208" y="56" width="8" height="8" fill="#171111" />
<rect x="232" y="56" width="16" height="8" fill="#171111" />
<rect x="144" y="72" width="24" height="8" fill="#241F20" />
<rect x="72" y="80" width="40" height="8" fill="#241F20" />
<rect x="136" y="80" width="8" height="8" fill="#241F20" />
<rect x="144" y="80" width="24" height="8" fill="#EBEDE9" />
<rect x="168" y="80" width="8" height="8" fill="#241F20" />
<rect x="176" y="80" width="8" height="8" fill="#5F2C1C" />
<rect x="72" y="88" width="8" height="40" fill="#241F20" />
<rect x="80" y="88" width="8" height="8" fill="#4D494D" />
<rect x="88" y="88" width="8" height="8" fill="#473E3F" />
<rect x="96" y="88" width="8" height="8" fill="#373537" />
<rect x="104" y="88" width="8" height="16" fill="#241F20" />
<rect x="128" y="88" width="8" height="8" fill="#241F20" />
<rect x="136" y="88" width="16" height="8" fill="#EBEDE9" />
<rect x="152" y="88" width="8" height="8" fill="#241F20" />
<rect x="160" y="88" width="16" height="8" fill="#EBEDE9" />
<rect x="176" y="88" width="8" height="8" fill="#241F20" />
<rect x="80" y="96" width="8" height="8" fill="#473E3F" />
<rect x="88" y="96" width="8" height="8" fill="#373537" />
<rect x="96" y="96" width="8" height="8" fill="#4D494D" />
<rect x="112" y="96" width="8" height="8" fill="#271C1D" />
<rect x="136" y="96" width="8" height="8" fill="#241F20" />
<rect x="144" y="96" width="24" height="8" fill="#EBEDE9" />
<rect x="168" y="96" width="8" height="8" fill="#241F20" />
<rect x="176" y="96" width="8" height="24" fill="#5F2C1C" />
<rect x="80" y="104" width="8" height="8" fill="#373537" />
<rect x="88" y="104" width="8" height="8" fill="#352D2D" />
<rect x="96" y="104" width="8" height="8" fill="#473E3F" />
<rect x="104" y="104" width="8" height="8" fill="#4D494D" />
<rect x="112" y="104" width="8" height="8" fill="#9C4E31" />
<rect x="120" y="104" width="16" height="8" fill="#5F2C1C" />
<rect x="136" y="104" width="8" height="8" fill="#9C4E31" />
<rect x="144" y="104" width="24" height="8" fill="#241F20" />
<rect x="168" y="104" width="8" height="8" fill="#D66D48" />
<rect x="80" y="112" width="8" height="8" fill="#5D565D" />
<rect x="88" y="112" width="8" height="8" fill="#766A76" />
<rect x="96" y="112" width="8" height="16" fill="#373537" />
<rect x="104" y="112" width="8" height="8" fill="#5D565D" />
<rect x="112" y="112" width="8" height="8" fill="#766A76" />
<rect x="120" y="112" width="16" height="8" fill="#FC9982" />
<rect x="136" y="112" width="24" height="24" fill="#D66D48" />
<rect x="160" y="112" width="8" height="8" fill="#9C4E31" />
<rect x="168" y="112" width="8" height="8" fill="#803921" />
<rect x="80" y="120" width="8" height="8" fill="#171111" />
<rect x="88" y="120" width="8" height="8" fill="#352D2D" />
<rect x="104" y="120" width="8" height="8" fill="#473E3F" />
<rect x="112" y="120" width="8" height="8" fill="#FC9982" />
<rect x="120" y="120" width="16" height="16" fill="#D66D48" />
<rect x="160" y="120" width="8" height="8" fill="#803921" />
<rect x="168" y="120" width="16" height="8" fill="#421C11" />
<rect x="88" y="128" width="8" height="40" fill="#171111" />
<rect x="96" y="128" width="8" height="8" fill="#473E3F" />
<rect x="104" y="128" width="8" height="8" fill="#5D565D" />
<rect x="112" y="128" width="8" height="8" fill="#4D494D" />
<rect x="160" y="128" width="8" height="40" fill="#421C11" />
<rect x="96" y="136" width="16" height="8" fill="#373537" />
<rect x="112" y="136" width="8" height="8" fill="#D66D48" />
<rect x="120" y="136" width="8" height="8" fill="#766A76" />
<rect x="128" y="136" width="24" height="16" fill="#D66D48" />
<rect x="152" y="136" width="8" height="24" fill="#9C4E31" />
<rect x="96" y="144" width="16" height="8" fill="#473E3F" />
<rect x="112" y="144" width="8" height="8" fill="#373537" />
<rect x="120" y="144" width="8" height="8" fill="#D66D48" />
<rect x="96" y="152" width="8" height="8" fill="#373537" />
<rect x="104" y="152" width="8" height="8" fill="#473E3F" />
<rect x="112" y="152" width="8" height="8" fill="#5D565D" />
<rect x="120" y="152" width="8" height="8" fill="#766A76" />
<rect x="128" y="152" width="16" height="8" fill="#D66D48" />
<rect x="144" y="152" width="8" height="16" fill="#9C4E31" />
<rect x="96" y="160" width="16" height="8" fill="#352D2D" />
<rect x="112" y="160" width="8" height="8" fill="#473E3F" />
<rect x="120" y="160" width="8" height="8" fill="#9C4E31" />
<rect x="128" y="160" width="8" height="8" fill="#5D565D" />
<rect x="136" y="160" width="8" height="16" fill="#9C4E31" />
<rect x="152" y="160" width="8" height="8" fill="#803921" />
<rect x="96" y="168" width="16" height="8" fill="#171111" />
<rect x="112" y="168" width="8" height="8" fill="#352D2D" />
<rect x="120" y="168" width="8" height="8" fill="#373537" />
<rect x="128" y="168" width="8" height="8" fill="#9C4E31" />
<rect x="144" y="168" width="8" height="8" fill="#803921" />
<rect x="152" y="168" width="8" height="8" fill="#421C11" />
<rect x="104" y="176" width="16" height="8" fill="#171111" />
<rect x="120" y="176" width="32" height="8" fill="#421C11" />
<rect x="40" y="200" width="168" height="8" fill="#171111" />
<rect x="32" y="208" width="16" height="8" fill="#171111" />
<rect x="48" y="208" width="16" height="8" fill="#EBEDE9" />
<rect x="64" y="208" width="16" height="8" fill="#171111" />
<rect x="80" y="208" width="16" height="8" fill="#EBEDE9" />
<rect x="96" y="208" width="8" height="32" fill="#171111" />
<rect x="104" y="208" width="16" height="16" fill="#EBEDE9" />
<rect x="120" y="208" width="8" height="8" fill="#171111" />
<rect x="128" y="208" width="8" height="16" fill="#EBEDE9" />
<rect x="136" y="208" width="16" height="8" fill="#171111" />
<rect x="152" y="208" width="24" height="8" fill="#EBEDE9" />
<rect x="176" y="208" width="16" height="8" fill="#171111" />
<rect x="192" y="208" width="16" height="8" fill="#EBEDE9" />
<rect x="208" y="208" width="8" height="24" fill="#171111" />
<rect x="32" y="216" width="8" height="16" fill="#171111" />
<rect x="40" y="216" width="8" height="16" fill="#EBEDE9" />
<rect x="48" y="216" width="8" height="8" fill="#171111" />
<rect x="56" y="216" width="8" height="16" fill="#EBEDE9" />
<rect x="64" y="216" width="8" height="24" fill="#171111" />
<rect x="72" y="216" width="8" height="16" fill="#EBEDE9" />
<rect x="80" y="216" width="8" height="24" fill="#171111" />
<rect x="88" y="216" width="8" height="8" fill="#EBEDE9" />
<rect x="120" y="216" width="8" height="16" fill="#EBEDE9" />
<rect x="136" y="216" width="8" height="16" fill="#EBEDE9" />
<rect x="144" y="216" width="8" height="24" fill="#171111" />
<rect x="152" y="216" width="8" height="16" fill="#EBEDE9" />
<rect x="160" y="216" width="8" height="8" fill="#171111" />
<rect x="168" y="216" width="8" height="16" fill="#EBEDE9" />
<rect x="176" y="216" width="8" height="24" fill="#171111" />
<rect x="184" y="216" width="8" height="16" fill="#EBEDE9" />
<rect x="192" y="216" width="8" height="24" fill="#171111" />
<rect x="200" y="216" width="8" height="8" fill="#EBEDE9" />
<rect x="48" y="224" width="8" height="8" fill="#EBEDE9" />
<rect x="88" y="224" width="8" height="16" fill="#171111" />
<rect x="104" y="224" width="8" height="8" fill="#EBEDE9" />
<rect x="112" y="224" width="8" height="16" fill="#171111" />
<rect x="128" y="224" width="8" height="16" fill="#171111" />
<rect x="160" y="224" width="8" height="8" fill="#EBEDE9" />
<rect x="200" y="224" width="8" height="16" fill="#171111" />
<rect x="40" y="232" width="24" height="8" fill="#171111" />
<rect x="72" y="232" width="8" height="8" fill="#171111" />
<rect x="104" y="232" width="8" height="8" fill="#171111" />
<rect x="120" y="232" width="8" height="8" fill="#171111" />
<rect x="136" y="232" width="8" height="8" fill="#171111" />
<rect x="152" y="232" width="24" height="8" fill="#171111" />
<rect x="184" y="232" width="8" height="8" fill="#171111" />
</svg>