<?xml version="1.0" encoding="UTF-8" ?>
<svg version="1.1" width="96" height="96" xmlns="http://www.w3.org/2000/svg" shape-rendering="crispEdges">
<rect x="30" y="6" width="36" height="6" fill="#000000" />
<rect x="18" y="12" width="18" height="6" fill="#000000" />
<rect x="36" y="12" width="24" height="6" fill="#7287F2" />
<rect x="60" y="12" width="18" height="6" fill="#000000" />
<rect x="12" y="18" width="12" height="6" fill="#000000" />
<rect x="24" y="18" width="12" height="6" fill="#F0F1FF" />
<rect x="36" y="18" width="24" height="6" fill="#4C4AD9" />
<rect x="60" y="18" width="12" height="6" fill="#F0F1FF" />
<rect x="72" y="18" width="12" height="6" fill="#000000" />
<rect x="12" y="24" width="6" height="12" fill="#000000" />
<rect x="18" y="24" width="6" height="12" fill="#F0F1FF" />
<rect x="24" y="24" width="12" height="12" fill="#E0E3FF" />
<rect x="36" y="24" width="24" height="6" fill="#F0F1FF" />
<rect x="60" y="24" width="12" height="12" fill="#E0E3FF" />
<rect x="72" y="24" width="6" height="12" fill="#C3C6E0" />
<rect x="78" y="24" width="6" height="12" fill="#000000" />
<rect x="6" y="30" width="6" height="36" fill="#000000" />
<rect x="36" y="30" width="24" height="6" fill="#E0E3FF" />
<rect x="84" y="30" width="6" height="36" fill="#000000" />
<rect x="12" y="36" width="6" height="24" fill="#F0F1FF" />
<rect x="18" y="36" width="12" height="30" fill="#E0E3FF" />
<rect x="30" y="36" width="6" height="6" fill="#7287F2" />
<rect x="36" y="36" width="6" height="12" fill="#5865F2" />
<rect x="42" y="36" width="12" height="24" fill="#E0E3FF" />
<rect x="54" y="36" width="6" height="6" fill="#7287F2" />
<rect x="60" y="36" width="6" height="12" fill="#5865F2" />
<rect x="66" y="36" width="12" height="24" fill="#E0E3FF" />
<rect x="78" y="36" width="6" height="24" fill="#C3C6E0" />
<rect x="30" y="42" width="6" height="6" fill="#5865F2" />
<rect x="54" y="42" width="6" height="6" fill="#5865F2" />
<rect x="30" y="48" width="12" height="6" fill="#E0E3FF" />
<rect x="54" y="48" width="12" height="6" fill="#E0E3FF" />
<rect x="30" y="54" width="6" height="6" fill="#5865F2" />
<rect x="36" y="54" width="6" height="6" fill="#E0E3FF" />
<rect x="54" y="54" width="6" height="6" fill="#E0E3FF" />
<rect x="60" y="54" width="6" height="6" fill="#5865F2" />
<rect x="12" y="60" width="6" height="18" fill="#000000" />
<rect x="30" y="60" width="6" height="6" fill="#E0E3FF" />
<rect x="36" y="60" width="24" height="6" fill="#7287F2" />
<rect x="60" y="60" width="12" height="6" fill="#E0E3FF" />
<rect x="72" y="60" width="6" height="6" fill="#C3C6E0" />
<rect x="78" y="60" width="6" height="18" fill="#000000" />
<rect x="18" y="66" width="6" height="6" fill="#7287F2" />
<rect x="24" y="66" width="12" height="6" fill="#C3C6E0" />
<rect x="36" y="66" width="6" height="6" fill="#7287F2" />
<rect x="42" y="66" width="18" height="12" fill="#5865F2" />
<rect x="60" y="66" width="12" height="6" fill="#C3C6E0" />
<rect x="72" y="66" width="6" height="6" fill="#4C4AD9" />
<rect x="18" y="72" width="6" height="12" fill="#000000" />
<rect x="24" y="72" width="12" height="6" fill="#7287F2" />
<rect x="36" y="72" width="6" height="6" fill="#5865F2" />
<rect x="60" y="72" width="12" height="6" fill="#4C4AD9" />
<rect x="72" y="72" width="6" height="12" fill="#000000" />
<rect x="24" y="78" width="12" height="6" fill="#000000" />
<rect x="36" y="78" width="24" height="6" fill="#4C4AD9" />
<rect x="60" y="78" width="12" height="6" fill="#000000" />
<rect x="30" y="84" width="36" height="6" fill="#000000" />
</svg>